<?xml version="1.0" encoding="UTF-8"?>
<svg xmlns="http://www.w3.org/2000/svg" xmlns:xlink="http://www.w3.org/1999/xlink" width="1920" zoomAndPan="magnify" viewBox="0 0 1440 809.999993" height="1080" preserveAspectRatio="xMidYMid meet" version="1.0" style="background: transparent;"><defs><g/></defs><g fill="#111111" fill-opacity="1"><g transform="translate(341.461864, 440.702254)"><g><path d="M 12.703125 0 L 12.703125 -130.6875 L 57.3125 -130.6875 C 72.625 -130.6875 85.226562 -127.976562 95.125 -122.5625 C 105.019531 -117.15625 112.363281 -109.566406 117.15625 -99.796875 C 121.945312 -90.023438 124.34375 -78.539062 124.34375 -65.34375 C 124.34375 -52.15625 121.945312 -40.675781 117.15625 -30.90625 C 112.363281 -21.132812 105.019531 -13.539062 95.125 -8.125 C 85.226562 -2.707031 72.625 0 57.3125 0 Z M 36.59375 -20.53125 L 56.203125 -20.53125 C 67.148438 -20.53125 75.796875 -22.300781 82.140625 -25.84375 C 88.492188 -29.394531 93.039062 -34.5 95.78125 -41.15625 C 98.519531 -47.820312 99.890625 -55.882812 99.890625 -65.34375 C 99.890625 -74.675781 98.519531 -82.703125 95.78125 -89.421875 C 93.039062 -96.148438 88.492188 -101.316406 82.140625 -104.921875 C 75.796875 -108.535156 67.148438 -110.34375 56.203125 -110.34375 L 36.59375 -110.34375 Z M 36.59375 -20.53125 "/></g></g></g><g fill="#111111" fill-opacity="1"><g transform="translate(482.227685, 440.702254)"><g><path d="M 12.703125 0 L 12.703125 -130.6875 L 36.59375 -130.6875 L 36.59375 0 Z M 12.703125 0 "/></g></g></g><g fill="#111111" fill-opacity="1"><g transform="translate(539.542463, 440.702254)"><g><path d="M 69.828125 2.234375 C 57.503906 2.234375 46.738281 -0.5625 37.53125 -6.15625 C 28.320312 -11.757812 21.164062 -19.570312 16.0625 -29.59375 C 10.957031 -39.613281 8.40625 -51.28125 8.40625 -64.59375 C 8.40625 -78.039062 11.046875 -89.894531 16.328125 -100.15625 C 21.617188 -110.425781 29.148438 -118.457031 38.921875 -124.25 C 48.691406 -130.039062 60.300781 -132.9375 73.75 -132.9375 C 89.0625 -132.9375 101.753906 -129.265625 111.828125 -121.921875 C 121.910156 -114.578125 128.445312 -104.429688 131.4375 -91.484375 L 104.734375 -91.484375 C 102.742188 -97.585938 99.132812 -102.347656 93.90625 -105.765625 C 88.675781 -109.191406 81.957031 -110.90625 73.75 -110.90625 C 60.675781 -110.90625 50.59375 -106.765625 43.5 -98.484375 C 36.40625 -90.203125 32.859375 -78.84375 32.859375 -64.40625 C 32.859375 -49.96875 36.375 -38.796875 43.40625 -30.890625 C 50.4375 -22.992188 59.988281 -19.046875 72.0625 -19.046875 C 83.882812 -19.046875 92.816406 -22.25 98.859375 -28.65625 C 104.898438 -35.070312 108.539062 -43.503906 109.78125 -53.953125 L 76.734375 -53.953125 L 76.734375 -71.875 L 133.859375 -71.875 L 133.859375 0 L 111.828125 0 L 109.96875 -17.171875 C 105.738281 -10.953125 100.445312 -6.160156 94.09375 -2.796875 C 87.75 0.554688 79.660156 2.234375 69.828125 2.234375 Z M 69.828125 2.234375 "/></g></g></g><g fill="#111111" fill-opacity="1"><g transform="translate(691.88316, 440.702254)"><g><path d="M 12.703125 0 L 12.703125 -130.6875 L 36.59375 -130.6875 L 36.59375 0 Z M 12.703125 0 "/></g></g></g><g fill="#111111" fill-opacity="1"><g transform="translate(749.197938, 440.702254)"><g><path d="M 43.125 0 L 43.125 -111.46875 L 5.046875 -111.46875 L 5.046875 -130.6875 L 105.296875 -130.6875 L 105.296875 -111.46875 L 67.03125 -111.46875 L 67.03125 0 Z M 43.125 0 "/></g></g></g><g fill="#111111" fill-opacity="1"><g transform="translate(853.745159, 440.702254)"><g><path d="M 4.296875 0 L 52.09375 -130.6875 L 78.96875 -130.6875 L 126.765625 0 L 101.375 0 L 90.921875 -30.25 L 39.953125 -30.25 L 29.3125 0 Z M 46.484375 -48.921875 L 84.390625 -48.921875 L 65.34375 -103.25 Z M 46.484375 -48.921875 "/></g></g></g><g fill="#111111" fill-opacity="1"><g transform="translate(992.644109, 440.702254)"><g><path d="M 12.703125 0 L 12.703125 -130.6875 L 36.59375 -130.6875 L 36.59375 -18.671875 L 94.46875 -18.671875 L 94.46875 0 Z M 12.703125 0 "/></g></g></g><g fill="#111111" fill-opacity="1"><g transform="translate(415.315326, 530.199449)"><g><path d="M 42.546875 -55.5 C 48.347656 -55.5 52.910156 -54.894531 56.234375 -53.6875 C 59.566406 -52.488281 61.925781 -50.71875 63.3125 -48.375 C 64.695312 -46.03125 65.390625 -43.164062 65.390625 -39.78125 L 65.390625 -37.09375 C 65.390625 -33.207031 64.695312 -30.015625 63.3125 -27.515625 C 61.925781 -25.015625 59.582031 -23.148438 56.28125 -21.921875 C 52.988281 -20.691406 48.410156 -20.078125 42.546875 -20.078125 L 16.28125 -20.078125 L 16.28125 0 L 11.46875 0 L 11.46875 -55.5 Z M 60.40625 -37.09375 L 60.40625 -39.78125 C 60.40625 -43.78125 58.984375 -46.628906 56.140625 -48.328125 C 53.304688 -50.023438 48.773438 -50.875 42.546875 -50.875 L 16.28125 -50.875 L 16.28125 -24.703125 L 42.546875 -24.703125 C 48.960938 -24.703125 53.539062 -25.625 56.28125 -27.46875 C 59.03125 -29.320312 60.40625 -32.53125 60.40625 -37.09375 Z M 60.40625 -37.09375 "/></g></g></g><g fill="#111111" fill-opacity="1"><g transform="translate(506.610381, 530.199449)"><g><path d="M 61.703125 0 L 55.6875 -10.921875 L 11.9375 -10.921875 L 5.921875 0 L 0.46875 0 L 30.984375 -55.5 L 36.625 -55.5 L 67.15625 0 Z M 14.4375 -15.546875 L 53.1875 -15.546875 L 33.859375 -50.6875 Z M 14.4375 -15.546875 "/></g></g></g><g fill="#111111" fill-opacity="1"><g transform="translate(600.125418, 530.199449)"><g><path d="M 67.4375 -5.546875 C 67.4375 -4.554688 67.476562 -3.597656 67.5625 -2.671875 C 67.65625 -1.753906 67.765625 -0.863281 67.890625 0 L 62.625 0 C 62.5 -0.863281 62.40625 -1.742188 62.34375 -2.640625 C 62.28125 -3.535156 62.25 -4.382812 62.25 -5.1875 L 62.25 -14.4375 C 62.25 -17.695312 61.140625 -20.066406 58.921875 -21.546875 C 56.703125 -23.023438 52.847656 -23.765625 47.359375 -23.765625 L 16.46875 -23.765625 L 16.46875 0 L 11.46875 0 L 11.46875 -55.5 L 47.359375 -55.5 C 54.453125 -55.5 59.570312 -54.265625 62.71875 -51.796875 C 65.863281 -49.328125 67.4375 -45.8125 67.4375 -41.25 L 67.4375 -39.03125 C 67.4375 -35.820312 66.832031 -33.171875 65.625 -31.078125 C 64.425781 -28.984375 62.5 -27.347656 59.84375 -26.171875 C 62.5 -25.128906 64.425781 -23.632812 65.625 -21.6875 C 66.832031 -19.75 67.4375 -17.332031 67.4375 -14.4375 Z M 16.46875 -28.578125 L 47.359375 -28.578125 C 52.847656 -28.578125 56.734375 -29.378906 59.015625 -30.984375 C 61.296875 -32.585938 62.4375 -35.269531 62.4375 -39.03125 L 62.4375 -41.25 C 62.4375 -44.519531 61.296875 -46.941406 59.015625 -48.515625 C 56.734375 -50.085938 52.847656 -50.875 47.359375 -50.875 L 16.46875 -50.875 Z M 16.46875 -28.578125 "/></g></g></g><g fill="#111111" fill-opacity="1"><g transform="translate(702.242589, 530.199449)"><g><path d="M 11.46875 0 L 11.46875 -55.5 L 16.28125 -55.5 L 16.28125 0 Z M 11.46875 0 "/></g></g></g><g fill="#111111" fill-opacity="1"><g transform="translate(755.891802, 530.199449)"><g><path d="M 64.84375 -37.1875 C 64.84375 -42.488281 62.742188 -46.234375 58.546875 -48.421875 C 54.359375 -50.609375 48.007812 -51.703125 39.5 -51.703125 C 30.550781 -51.703125 23.78125 -50.882812 19.1875 -49.25 C 14.59375 -47.625 12.296875 -45.269531 12.296875 -42.1875 L 12.296875 -40.515625 C 12.296875 -38.785156 13.003906 -37.285156 14.421875 -36.015625 C 15.847656 -34.753906 18.410156 -33.691406 22.109375 -32.828125 C 25.804688 -31.972656 31.109375 -31.175781 38.015625 -30.4375 C 45.785156 -29.632812 51.9375 -28.691406 56.46875 -27.609375 C 61 -26.535156 64.234375 -25.007812 66.171875 -23.03125 C 68.117188 -21.0625 69.09375 -18.378906 69.09375 -14.984375 L 69.09375 -12.953125 C 69.09375 -10.421875 68.078125 -8.09375 66.046875 -5.96875 C 64.015625 -3.84375 60.695312 -2.160156 56.09375 -0.921875 C 51.5 0.304688 45.320312 0.921875 37.5625 0.921875 C 26.707031 0.921875 18.96875 -0.722656 14.34375 -4.015625 C 9.71875 -7.316406 7.40625 -12.390625 7.40625 -19.234375 L 12.203125 -19.234375 C 12.203125 -13.441406 14.285156 -9.40625 18.453125 -7.125 C 22.617188 -4.84375 28.988281 -3.703125 37.5625 -3.703125 C 46.1875 -3.703125 52.796875 -4.546875 57.390625 -6.234375 C 61.984375 -7.929688 64.28125 -10.351562 64.28125 -13.5 L 64.28125 -15.171875 C 64.28125 -16.648438 63.894531 -17.941406 63.125 -19.046875 C 62.351562 -20.160156 60.992188 -21.132812 59.046875 -21.96875 C 57.109375 -22.800781 54.394531 -23.539062 50.90625 -24.1875 C 47.425781 -24.832031 42.945312 -25.4375 37.46875 -26 C 30.0625 -26.789062 24.171875 -27.710938 19.796875 -28.765625 C 15.421875 -29.816406 12.273438 -31.28125 10.359375 -33.15625 C 8.453125 -35.039062 7.5 -37.554688 7.5 -40.703125 L 7.5 -42.734375 C 7.5 -45.328125 8.53125 -47.640625 10.59375 -49.671875 C 12.65625 -51.703125 16.03125 -53.316406 20.71875 -54.515625 C 25.40625 -55.722656 31.664062 -56.328125 39.5 -56.328125 C 49.425781 -56.328125 56.929688 -54.847656 62.015625 -51.890625 C 67.109375 -48.929688 69.65625 -44.03125 69.65625 -37.1875 Z M 64.84375 -37.1875 "/></g></g></g><g fill="#111111" fill-opacity="1"><g transform="translate(858.841427, 530.199449)"><g><path d="M 69.375 -55.5 L 74.1875 -55.5 L 74.1875 0 L 69.375 0 L 69.375 -25.15625 L 16.28125 -25.15625 L 16.28125 0 L 11.46875 0 L 11.46875 -55.5 L 16.28125 -55.5 L 16.28125 -29.421875 L 69.375 -29.421875 Z M 69.375 -55.5 "/></g></g></g></svg>